<svg width="50" height="50" viewBox="0 0 50 50" fill="none" xmlns="http://www.w3.org/2000/svg">
<path d="M49.9 21.4039C49.7266 21.0347 49.3564 20.7985 48.9468 20.7985H45.8331C43.8533 10.0552 34.4195 1.88831 23.1123 1.88831C10.3689 1.88831 0 12.2572 0 25.0006C0 37.7439 10.3679 48.1118 23.1123 48.1118C31.3366 48.1118 39.0066 43.6853 43.1289 36.562C43.7097 35.5567 43.3672 34.2727 42.3608 33.6908C41.3566 33.1089 40.0715 33.4515 39.4917 34.4568C36.1173 40.2875 29.8409 43.9108 23.1123 43.9108C12.6859 43.9108 4.20204 35.428 4.20204 25.0027C4.20204 14.5753 12.6859 6.09247 23.1123 6.09247C32.0929 6.09247 39.6172 12.3913 41.5342 20.7996H38.4449C38.0354 20.7996 37.6662 21.0358 37.4918 21.4049C37.3184 21.7741 37.3747 22.2092 37.6364 22.523L42.8895 28.826C43.0895 29.0654 43.3842 29.2037 43.6969 29.2037C44.0086 29.2037 44.3044 29.0643 44.5033 28.826L49.7564 22.523C50.0181 22.2081 50.0734 21.773 49.9 21.4039Z" fill="#FE7E11"/>
<path d="M23.1123 7.14136C21.9517 7.14136 21.0113 8.08176 21.0113 9.24238V21.991C20.0613 22.657 19.4358 23.7548 19.4358 25.0016C19.4358 27.0292 21.0858 28.6792 23.1134 28.6792C23.6687 28.6792 24.1921 28.5462 24.6644 28.3239L31.9728 32.5419C32.3047 32.7344 32.6642 32.8249 33.0217 32.8249C33.7472 32.8249 34.4536 32.4483 34.8429 31.7738C35.4227 30.7706 35.0791 29.4845 34.0727 28.9047L26.7569 24.6803C26.659 23.5697 26.0814 22.5995 25.2155 21.9932V9.24238C25.2133 8.08283 24.2719 7.14136 23.1123 7.14136ZM23.1123 26.5761C22.2432 26.5761 21.5368 25.8686 21.5368 25.0016C21.5368 24.1336 22.2442 23.4261 23.1123 23.4261C23.9804 23.4261 24.6878 24.1336 24.6878 25.0016C24.6878 25.8686 23.9804 26.5761 23.1123 26.5761Z" fill="#FE7E11"/>
</svg>
