<svg width="50" height="50" viewBox="0 0 50 50" fill="none" xmlns="http://www.w3.org/2000/svg">
<g clip-path="url(#clip0)">
<path d="M37.7609 29.7268C34.2856 29.7268 31.4584 32.5541 31.4584 36.0293C31.4584 39.5046 34.2856 42.3319 37.7609 42.3319C41.2368 42.3319 44.0635 39.5046 44.0635 36.0293C44.0635 32.5541 41.2362 29.7268 37.7609 29.7268ZM37.7609 39.1806C36.023 39.1806 34.6096 37.7672 34.6096 36.0293C34.6096 34.2915 36.023 32.8781 37.7609 32.8781C39.4988 32.8781 40.9122 34.2915 40.9122 36.0293C40.9122 37.7673 39.4988 39.1806 37.7609 39.1806Z" fill="#FE7E11"/>
<path d="M16.2284 29.7268C12.7531 29.7268 9.9259 32.5541 9.9259 36.0293C9.9259 39.5046 12.7531 42.3319 16.2284 42.3319C19.7037 42.3319 22.531 39.5046 22.531 36.0293C22.531 32.5541 19.7037 29.7268 16.2284 29.7268ZM16.2284 39.1806C14.4906 39.1806 13.0772 37.7672 13.0772 36.0293C13.0772 34.2915 14.4906 32.8781 16.2284 32.8781C17.9658 32.8781 19.3797 34.2915 19.3797 36.0293C19.3797 37.7673 17.9663 39.1806 16.2284 39.1806Z" fill="#FE7E11"/>
<path d="M42.0071 11.687C41.7392 11.155 41.1946 10.8193 40.599 10.8193H32.3007V13.9706H39.6273L43.9177 22.5042L46.734 21.0882L42.0071 11.687Z" fill="#FE7E11"/>
<path d="M33.0355 34.5063H21.1133V37.6576H33.0355V34.5063Z" fill="#FE7E11"/>
<path d="M11.5029 34.5063H6.0408C5.17048 34.5063 4.46521 35.2117 4.46521 36.0819C4.46521 36.9522 5.17058 37.6575 6.0408 37.6575H11.503C12.3733 37.6575 13.0786 36.9521 13.0786 36.0819C13.0786 35.2116 12.3732 34.5063 11.5029 34.5063Z" fill="#FE7E11"/>
<path d="M49.67 24.8739L46.5708 20.8823C46.273 20.4979 45.8135 20.2731 45.3265 20.2731H33.8769V9.24368C33.8769 8.37336 33.1716 7.66809 32.3013 7.66809H6.0408C5.17048 7.66809 4.46521 8.37346 4.46521 9.24368C4.46521 10.1139 5.17058 10.8193 6.0408 10.8193H30.7257V21.8487C30.7257 22.719 31.431 23.4242 32.3013 23.4242H44.555L46.8496 26.3801V34.5062H42.4903C41.62 34.5062 40.9147 35.2115 40.9147 36.0818C40.9147 36.9521 41.6201 37.6573 42.4903 37.6573H48.4252C49.2955 37.6573 50.0008 36.952 50.0009 36.0818V25.8404C50.0009 25.4906 49.8843 25.1502 49.67 24.8739Z" fill="#FE7E11"/>
<path d="M11.3976 26.5232H4.14968C3.27937 26.5232 2.5741 27.2286 2.5741 28.0988C2.5741 28.9691 3.27947 29.6744 4.14968 29.6744H11.3975C12.2678 29.6744 12.9731 28.969 12.9731 28.0988C12.9732 27.2286 12.2678 26.5232 11.3976 26.5232Z" fill="#FE7E11"/>
<path d="M15.021 20.3256H1.57559C0.705371 20.3256 0 21.0309 0 21.9012C0 22.7716 0.705371 23.4768 1.57559 23.4768H15.021C15.8913 23.4768 16.5966 22.7715 16.5966 21.9012C16.5966 21.031 15.8913 20.3256 15.021 20.3256Z" fill="#FE7E11"/>
<path d="M17.5951 14.1282H4.14968C3.27937 14.1282 2.5741 14.8335 2.5741 15.7038C2.5741 16.5741 3.27947 17.2793 4.14968 17.2793H17.5951C18.4654 17.2793 19.1707 16.574 19.1707 15.7038C19.1708 14.8335 18.4654 14.1282 17.5951 14.1282Z" fill="#FE7E11"/>
</g>
<defs>
<clipPath id="clip0">
<rect width="50" height="50" fill="white"/>
</clipPath>
</defs>
</svg>
