<svg width="50" height="48" viewBox="0 0 50 48" fill="none" xmlns="http://www.w3.org/2000/svg">
<path d="M40.3503 0.875488C38.7593 0.875488 11.4064 0.875488 9.65255 0.875488L0 14.038L25.1037 47.1244L50.0001 14.0342L40.3503 0.875488ZM13.7238 15.484L20.7964 36.6139L4.76453 15.484H13.7238ZM16.8049 15.484H33.2066L25.062 40.1527L16.8049 15.484ZM36.2835 15.484H45.253L29.2698 36.7275L36.2835 15.484ZM38.8695 3.7972L45.2973 12.5623H36.2855L33.4095 3.7972H38.8695ZM30.3345 3.7972L33.2105 12.5623H16.7922L19.6683 3.7972H30.3345ZM11.1331 3.7972H16.5932L13.7171 12.5623H4.70532L11.1331 3.7972Z" fill="#FE7E11"/>
</svg>
